<?xml version="1.0" encoding="UTF-8"?>
<svg id="Layer_2" data-name="Layer 2" xmlns="http://www.w3.org/2000/svg" viewBox="0 0 476.87 595.56">
  <defs>
    <style>
      .cls-1 {
        fill: #2d3351;
      }

      .cls-2 {
        fill: #ff6533;
      }
    </style>
  </defs>
  <g id="Layer_1-2" data-name="Layer 1-2">
    <g>
      <path class="cls-2" d="M457.62,4.35c17.75,9.54,24.43,31.71,14.91,49.51-9.52,17.8-31.62,24.5-49.37,14.95-17.75-9.54-24.43-31.71-14.91-49.51s31.62-24.5,49.37-14.95h0Z"/>
      <path class="cls-1" d="M435.6,595.24c-19.97,0-36.15-16.23-36.15-36.26v-167.24c-.86-41.64-17-72.33-37.77-91.71-36.26-33.83-112.43-30-112.43-30-25.14.27-41.11.33-56.12.33l-50.74-.07C53.23,270.29,0,220.33,0,136.66S48.68,8.67,144.68,1.61c16.15-1.17,31.54-1.33,43.14-1.33l165.41.15c19.97,0,36.15,16.23,36.15,36.26s-16.18,36.26-36.15,36.26l-165.36-.15c-12.78,0-25.27.21-37.91,1.13-65.28,4.8-77.66,25.75-77.66,62.73,0,30.22,8.34,61.11,70.09,61.11l50.74.07c14.79,0,30.54-.07,55.39-.33l6.33-.13c32.35-.86,108.12-2.77,162.36,49.2,34.94,33.46,53.27,82.06,54.53,144.43v167.97c0,20.03-16.18,36.26-36.15,36.26h.01Z"/>
      <path class="cls-1" d="M327.83,595.24c-19.97,0-36.15-16.23-36.15-36.26v-167.33c0-16.37-3.93-17.88-9.86-20.16-15.34-5.92-45.02-6.34-76.12-6.38h-24.52c-.51,0-1.02-.01-1.5-.03-35.53.03-71.81.94-80.82,9.94-2.32,2.31-3.64,8.38-3.64,16.64v78.37c0,20.03-16.18,36.26-36.15,36.26s-36.15-16.23-36.15-36.26v-78.37c0-28.58,8.36-51.45,24.87-67.97,31.32-31.35,81.46-31.27,144.88-31.1l12.62-.02h.88c41.11,0,74.73.89,101.61,11.25,25.64,9.89,56.19,33.16,56.19,87.85v167.33c0,20.03-16.18,36.26-36.15,36.26v-.02Z"/>
      <path class="cls-2" d="M76.3,526.75c17.75,9.54,24.43,31.71,14.91,49.51s-31.62,24.5-49.37,14.95c-17.75-9.54-24.43-31.71-14.91-49.51s31.62-24.5,49.37-14.95Z"/>
    </g>
  </g>
</svg>