<svg width="85" height="22" viewBox="0 0 85 22" fill="none" xmlns="http://www.w3.org/2000/svg">
<path d="M11.9582 21.1606H0L15.2061 6.05331C16.2354 5.03457 17.2847 4.11002 18.4241 3.23852C22.1051 0.421747 25.7741 0.173695 30.2861 0.0112019L69.9233 0.00390625L61.8218 7.9243L32.6964 7.92563C31.0615 7.95017 29.5188 7.98731 27.931 8.22807C25.0558 8.65851 23.3633 10.1044 21.3516 12.051L11.9589 21.1599L11.9582 21.1606Z" fill="#F11D01"/>
<path d="M25.2616 21.1615H14.1338L22.8919 12.4014C23.3236 11.971 23.7408 11.6234 24.1964 11.2394C25.3339 10.2817 26.667 9.72192 28.146 9.48846C29.5322 9.27689 30.868 9.23643 32.2999 9.19531H60.6122L53.1793 16.6123H33.3617L31.2036 16.7105C30.1285 16.8299 29.1747 17.253 28.3981 18.023L25.2609 21.1621L25.2616 21.1615Z" fill="#F11D01"/>
<path d="M63.562 21.1613H50.3828L71.5653 0L84.7591 0.00795886L63.562 21.1613Z" fill="#F11D01"/>
</svg>
