<svg width="30" height="67" viewBox="0 0 30 67" fill="none" xmlns="http://www.w3.org/2000/svg">
<path d="M8.42905 49.7074C8.42905 49.7074 17.1359 39.5945 15.5496 27.1201C12.5031 15.7994 11.0069 14.9522 12.6112 14.141C14.8285 12.9873 16.5231 21.9284 16.5231 21.9284C16.5231 21.9284 17.6587 27.8412 18.524 27.1201C18.7223 25.0831 16.487 21.4958 19.7317 21.3696C22.598 21.2615 22.3816 24.5243 21.8589 26.8317C21.8228 26.9578 22.0032 27.0119 22.0572 26.9038C23.4272 24.2719 25.6985 19.621 26.6179 14.826C26.8162 13.7985 28.2403 13.6723 28.5828 14.6637C28.727 15.0964 28.763 15.6732 28.6188 16.4303C28.1321 18.8279 24.7251 27.8772 24.7251 27.8772C24.7251 27.8772 21.3542 33.4835 21.8229 38.8554C22.0392 41.3611 21.5705 42.9114 20.4709 46.2643C19.3713 49.6172 22.3997 55.4759 25.0496 61.9835C23.8598 66.1296 5.02207 66.0935 3.85034 61.9835C6.50025 55.4759 9.51064 49.6172 8.42905 46.2643C7.34745 42.9114 7.90634 38.8554 6.80672 36.6021" stroke="#191D34" stroke-width="2" stroke-linecap="round" stroke-linejoin="round"/>
<path d="M5.02222 59.1182C5.02222 61.8221 23.8239 61.8221 23.8239 59.1182" stroke="#191D34" stroke-width="2" stroke-linecap="round" stroke-linejoin="round"/>
<path d="M10.1597 52.7903C10.1597 52.7903 19.0828 48.5721 21.8589 39.5408" stroke="#191D34" stroke-width="2" stroke-linecap="round" stroke-linejoin="round"/>
<path d="M10.1597 41.8485C10.1597 41.8485 2.82292 32.5108 3.39977 24.6152C-0.223573 19.5677 1.05637 15.8723 2.10191 13.3125C2.39033 19.8021 3.95862 21.9472 7.59998 22.5781C11.2413 23.2091 13.008 18.7205 13.008 18.7205" stroke="#191D34" stroke-width="2" stroke-linecap="round" stroke-linejoin="round"/>
<path d="M2.10175 13.3121C1.99359 12.0683 2.1378 10.9687 2.44426 9.70682C3.61598 4.65938 9.22224 1 15.0628 1C20.615 1 23.8238 4.02846 25.6625 7.18311C27.5012 10.3378 27.393 14.3216 27.393 14.3216" stroke="#191D34" stroke-width="2" stroke-linecap="round" stroke-linejoin="round"/>
<path d="M3.39966 24.615C3.39966 24.615 10.1055 30.3294 10.1596 34.151" stroke="#191D34" stroke-width="2" stroke-linecap="round" stroke-linejoin="round"/>
</svg>
