<?xml version="1.0" encoding="UTF-8"?>
<svg id="flag-icons-us" xmlns="http://www.w3.org/2000/svg" viewBox="0 0 512 512">
  <defs>
    <style>
      .cls-1 {
        fill: #192f5d;
      }

      .cls-2 {
        fill: #fff;
      }

      .cls-3 {
        stroke: #fff;
        stroke-width: 40px;
      }

      .cls-4 {
        fill: #bd3d44;
      }
    </style>
  </defs>
  <path class="cls-4" d="M0,0h512v512H0"/>
  <path class="cls-3" d="M0,58h512M0,137h512M0,216h512M0,295h512M0,374h512M0,453h512"/>
  <path class="cls-1" d="M0,0h390v275H0V0Z"/>
  <path class="cls-2" d="M33,11l9.3,28.6-24.3-17.6h30l-24.3,17.6"/>
  <path class="cls-2" d="M98,11l9.3,28.6-24.3-17.6h30l-24.3,17.6"/>
  <path class="cls-2" d="M163,11l9.3,28.6-24.3-17.6h30l-24.3,17.6"/>
  <path class="cls-2" d="M228,11l9.3,28.6-24.3-17.6h30l-24.3,17.6"/>
  <path class="cls-2" d="M293,11l9.3,28.6-24.3-17.6h30l-24.3,17.6"/>
  <path class="cls-2" d="M359,11l9.3,28.6-24.3-17.6h30l-24.3,17.6"/>
  <path class="cls-2" d="M66,39l9.3,28.6-24.3-17.6h30l-24.3,17.6"/>
  <path class="cls-2" d="M131,39l9.3,28.6-24.3-17.6h30l-24.3,17.6"/>
  <path class="cls-2" d="M196,39l9.3,28.6-24.3-17.6h30l-24.3,17.6"/>
  <path class="cls-2" d="M261,39l9.3,28.6-24.3-17.6h30l-24.3,17.6"/>
  <path class="cls-2" d="M326,39l9.3,28.6-24.3-17.6h30l-24.3,17.6"/>
  <path class="cls-2" d="M33,66l9.3,28.6-24.3-17.6h30l-24.3,17.6"/>
  <path class="cls-2" d="M98,66l9.3,28.6-24.3-17.6h30l-24.3,17.6"/>
  <path class="cls-2" d="M163,66l9.3,28.6-24.3-17.6h30l-24.3,17.6"/>
  <path class="cls-2" d="M228,66l9.3,28.6-24.3-17.6h30l-24.3,17.6"/>
  <path class="cls-2" d="M293,66l9.3,28.6-24.3-17.6h30l-24.3,17.6"/>
  <path class="cls-2" d="M359,66l9.3,28.6-24.3-17.6h30l-24.3,17.6"/>
  <path class="cls-2" d="M66,94l9.3,28.6-24.3-17.6h30l-24.3,17.6"/>
  <path class="cls-2" d="M131,94l9.3,28.6-24.3-17.6h30l-24.3,17.6"/>
  <path class="cls-2" d="M196,94l9.3,28.6-24.3-17.6h30l-24.3,17.6"/>
  <path class="cls-2" d="M261,94l9.3,28.6-24.3-17.6h30l-24.3,17.6"/>
  <path class="cls-2" d="M326,94l9.3,28.6-24.3-17.6h30l-24.3,17.6"/>
  <path class="cls-2" d="M33,121l9.3,28.6-24.3-17.6h30l-24.3,17.6"/>
  <path class="cls-2" d="M98,121l9.3,28.6-24.3-17.6h30l-24.3,17.6"/>
  <path class="cls-2" d="M163,121l9.3,28.6-24.3-17.6h30l-24.3,17.6"/>
  <path class="cls-2" d="M228,121l9.3,28.6-24.3-17.6h30l-24.3,17.6"/>
  <path class="cls-2" d="M293,121l9.3,28.6-24.3-17.6h30l-24.3,17.6"/>
  <path class="cls-2" d="M359,121l9.3,28.6-24.3-17.6h30l-24.3,17.6"/>
  <path class="cls-2" d="M66,149l9.3,28.6-24.3-17.6h30l-24.3,17.6"/>
  <path class="cls-2" d="M131,149l9.3,28.6-24.3-17.6h30l-24.3,17.6"/>
  <path class="cls-2" d="M196,149l9.3,28.6-24.3-17.6h30l-24.3,17.6"/>
  <path class="cls-2" d="M261,149l9.3,28.6-24.3-17.6h30l-24.3,17.6"/>
  <path class="cls-2" d="M326,149l9.3,28.6-24.3-17.6h30l-24.3,17.6"/>
  <path class="cls-2" d="M33,177l9.3,28.6-24.3-17.6h30l-24.3,17.6"/>
  <path class="cls-2" d="M98,177l9.3,28.6-24.3-17.6h30l-24.3,17.6"/>
  <path class="cls-2" d="M163,177l9.3,28.6-24.3-17.6h30l-24.3,17.6"/>
  <path class="cls-2" d="M228,177l9.3,28.6-24.3-17.6h30l-24.3,17.6"/>
  <path class="cls-2" d="M293,177l9.3,28.6-24.3-17.6h30l-24.3,17.6"/>
  <path class="cls-2" d="M359,177l9.3,28.6-24.3-17.6h30l-24.3,17.6"/>
  <path class="cls-2" d="M66,205l9.3,28.6-24.3-17.6h30l-24.3,17.6"/>
  <path class="cls-2" d="M131,205l9.3,28.6-24.3-17.6h30l-24.3,17.6"/>
  <path class="cls-2" d="M196,205l9.3,28.6-24.3-17.6h30l-24.3,17.6"/>
  <path class="cls-2" d="M261,205l9.3,28.6-24.3-17.6h30l-24.3,17.6"/>
  <path class="cls-2" d="M326,205l9.3,28.6-24.3-17.6h30l-24.3,17.6"/>
  <path class="cls-2" d="M33,232l9.3,28.6-24.3-17.6h30l-24.3,17.6"/>
  <path class="cls-2" d="M98,232l9.3,28.6-24.3-17.6h30l-24.3,17.6"/>
  <path class="cls-2" d="M163,232l9.3,28.6-24.3-17.6h30l-24.3,17.6"/>
  <path class="cls-2" d="M228,232l9.3,28.6-24.3-17.6h30l-24.3,17.6"/>
  <path class="cls-2" d="M293,232l9.3,28.6-24.3-17.6h30l-24.3,17.6"/>
  <path class="cls-2" d="M359,232l9.3,28.6-24.3-17.6h30l-24.3,17.6"/>
</svg>