<svg width="29" height="28" viewBox="0 0 29 28" fill="none" xmlns="http://www.w3.org/2000/svg">
<path d="M20.72 21.3662H7.8345V27.3109H20.72V21.3662Z" stroke="#161820" stroke-width="1.3" stroke-linecap="round" stroke-linejoin="round"/>
<path d="M18.039 19.4165H10.5049V21.3663H18.039V19.4165Z" stroke="#161820" stroke-width="1.3" stroke-linecap="round" stroke-linejoin="round"/>
<path d="M16.439 17.4246H12.1261V19.4273H16.439V17.4246Z" stroke="#161820" stroke-width="1.3" stroke-linecap="round" stroke-linejoin="round"/>
<path d="M13.101 17.4247C13.101 17.4247 8.06761 12.4973 7.84508 9.47727C7.84508 0.607904 7.62259 0.660896 7.62259 0.660896H21.1121V7.46392C21.1121 8.85208 20.7412 10.2084 20.0312 11.3953C18.7066 13.6099 16.5237 17.0539 15.5276 17.4353" stroke="#161820" stroke-width="1.3" stroke-linecap="round" stroke-linejoin="round"/>
<path d="M21.1014 0.649902H27.7561C27.7561 0.649902 26.0713 8.86228 19.1941 12.7406" stroke="#161820" stroke-width="1.3" stroke-linecap="round" stroke-linejoin="round"/>
<path d="M21.1439 2.50439H25.2342C25.2342 2.50439 24.4182 6.46754 21.0909 8.34314" stroke="#161820" stroke-width="1.3" stroke-linecap="round" stroke-linejoin="round"/>
<path d="M7.3047 0.649902H0.649994C0.649994 0.649902 2.33487 8.86228 9.21207 12.7406" stroke="#161820" stroke-width="1.3" stroke-linecap="round" stroke-linejoin="round"/>
<path d="M7.25165 2.50439H3.16138C3.16138 2.50439 3.97735 6.46754 7.30469 8.34314" stroke="#161820" stroke-width="1.3" stroke-linecap="round" stroke-linejoin="round"/>
</svg>
